<svg width="22" height="22" viewBox="0 0 22 22" fill="none" xmlns="http://www.w3.org/2000/svg">
<path d="M12.5 18H16.7942C18.6594 18 19.592 18 20.1215 17.6092C20.5832 17.2685 20.8763 16.7459 20.9263 16.1743C20.9836 15.5187 20.4973 14.7229 19.5247 13.1313L18.5278 11.5M5.63014 9.60522L3.47528 13.1314C2.50267 14.7229 2.01637 15.5187 2.07372 16.1743C2.12372 16.7459 2.41681 17.2685 2.87846 17.6092C3.40799 18 4.34059 18 6.20578 18H8M16.3889 7.99999L14.2305 4.46808C13.3277 2.99079 12.8763 2.25214 12.2952 2.00033C11.7879 1.78049 11.2121 1.78049 10.7048 2.00033C10.1237 2.25214 9.67229 2.99079 8.7695 4.46809L7.74967 6.13689M17.5 4.00006L16.4019 8.09813L12.3038 7.00006M1.5 10.5981L5.59808 9.49999L6.69615 13.5981M15 21L12 18L15 15" stroke="black" stroke-width="2" stroke-linecap="round" stroke-linejoin="round"/>
</svg>
